<svg width="200" height="200" viewBox="0 0 200 200" fill="none" xmlns="http://www.w3.org/2000/svg">
<g clip-path="url(#clip0_820_170)">
<path d="M200 0H0V200H200V0Z" fill="#020204"/>
<path opacity="0.9" d="M100 40L108 92L160 100L108 108L100 160L92 108L40 100L92 92L100 40Z" fill="#E0E6ED"/>
<path opacity="0.3" d="M100 130C116.569 130 130 116.569 130 100C130 83.4315 116.569 70 100 70C83.4315 70 70 83.4315 70 100C70 116.569 83.4315 130 100 130Z" stroke="#5D7FB0" stroke-width="0.5"/>
<path opacity="0.15" d="M100 150C127.614 150 150 127.614 150 100C150 72.3858 127.614 50 100 50C72.3858 50 50 72.3858 50 100C50 127.614 72.3858 150 100 150Z" stroke="#5D7FB0" stroke-width="0.3"/>
<path opacity="0.5" d="M55 52L56.5 58.5L63 60L56.5 61.5L55 68L53.5 61.5L47 60L53.5 58.5L55 52Z" fill="#8B9BB4"/>
<path opacity="0.4" d="M150 129L151 134L156 135L151 136L150 141L149 136L144 135L149 134L150 129Z" fill="#8B9BB4"/>
<path opacity="0.3" d="M135 45L135.8 49.2L140 50L135.8 50.8L135 55L134.2 50.8L130 50L134.2 49.2L135 45Z" fill="#8B9BB4"/>
</g>
<defs>
<clipPath id="clip0_820_170">
<rect width="200" height="200" fill="white"/>
</clipPath>
</defs>
</svg>
